# xmcd
#
# Track frame offsets:
#	150
#	27298
#	47323
#	68821
#	90764
#	124254
#	151544
#	177468
#	201696
#	226270
#	245605
#	271199
#	294966
#
# Disc length: 4276 seconds
#
# Revision: 1
# Processed by: cddbd v1.5.2PL0 Copyright (c) Steve Scherf et al.
# Submitted via: audiograbber 1.83.01
#
DISCID=a610b20d
DTITLE=Notting Hillbillies - Live in London R.S. 98
DYEAR=1998
DGENRE=Country
TTITLE0=Run me down
TTITLE1=One Way Gal
TTITLE2=Good rockin' tonight
TTITLE3=Your own sweet way
TTITLE4=Railroad worksong
TTITLE5=Why worry
TTITLE6=Water of love
TTITLE7=Rope stretching
TTITLE8=Hobo's lullaby
TTITLE9=Meet me in the bottom
TTITLE10=Denomination blues
TTITLE11=K.c. moan
TTITLE12=Can't be satisfied
EXTD=
EXTT0=
EXTT1=
EXTT2=
EXTT3=
EXTT4=
EXTT5=
EXTT6=
EXTT7=
EXTT8=
EXTT9=
EXTT10=
EXTT11=
EXTT12=
PLAYORDER=
